<svg width="539" height="193" viewBox="0 0 539 193" fill="none" xmlns="http://www.w3.org/2000/svg">
<g clip-path="url(#clip0_85_2)">
<path d="M128.287 104C134.475 104 139.92 100.72 142.725 95.76L172.26 43.84C175.312 38.56 171.353 32 165.083 32H42.9825L35.2275 16H8.25V32H24.75L54.45 92.72L43.3125 112.24C37.29 122.96 45.21 136 57.75 136H156.75V120H57.75L66.825 104H128.287ZM50.82 48H151.057L128.287 88H70.3725L50.82 48ZM57.75 144C48.675 144 41.3325 151.2 41.3325 160C41.3325 168.8 48.675 176 57.75 176C66.825 176 74.25 168.8 74.25 160C74.25 151.2 66.825 144 57.75 144ZM140.25 144C131.175 144 123.833 151.2 123.833 160C123.833 168.8 131.175 176 140.25 176C149.325 176 156.75 168.8 156.75 160C156.75 151.2 149.325 144 140.25 144Z" fill="#1F243A"/>
</g>
<path d="M183.383 77.875L191 101.617L198.594 77.875H209.422V112H201.172V104.031L201.969 87.7188L193.719 112H188.281L180.008 87.6953L180.805 104.031V112H172.578V77.875H183.383ZM235.836 97.5391H222.898V105.672H238.18V112H214.672V77.875H238.227V84.2266H222.898V91.4219H235.836V97.5391ZM254.211 99.9531H249.758V112H241.531V77.875H254.961C259.008 77.875 262.172 78.7734 264.453 80.5703C266.734 82.3672 267.875 84.9062 267.875 88.1875C267.875 90.5625 267.391 92.5312 266.422 94.0938C265.469 95.6562 263.969 96.9219 261.922 97.8906L269.047 111.648V112H260.234L254.211 99.9531ZM249.758 93.6016H254.961C256.523 93.6016 257.695 93.1953 258.477 92.3828C259.273 91.5547 259.672 90.4062 259.672 88.9375C259.672 87.4688 259.273 86.3203 258.477 85.4922C257.68 84.6484 256.508 84.2266 254.961 84.2266H249.758V93.6016ZM300.453 100.445C300.344 102.82 299.703 104.922 298.531 106.75C297.359 108.562 295.711 109.969 293.586 110.969C291.477 111.969 289.062 112.469 286.344 112.469C281.859 112.469 278.328 111.008 275.75 108.086C273.172 105.164 271.883 101.039 271.883 95.7109V94.0234C271.883 90.6797 272.461 87.7578 273.617 85.2578C274.789 82.7422 276.469 80.8047 278.656 79.4453C280.844 78.0703 283.375 77.3828 286.25 77.3828C290.391 77.3828 293.719 78.4766 296.234 80.6641C298.75 82.8359 300.18 85.8359 300.523 89.6641H292.32C292.258 87.5859 291.734 86.0938 290.75 85.1875C289.766 84.2812 288.266 83.8281 286.25 83.8281C284.203 83.8281 282.703 84.5938 281.75 86.125C280.797 87.6562 280.297 90.1016 280.25 93.4609V95.875C280.25 99.5156 280.703 102.117 281.609 103.68C282.531 105.242 284.109 106.023 286.344 106.023C288.234 106.023 289.68 105.578 290.68 104.688C291.68 103.797 292.211 102.383 292.273 100.445H300.453ZM323.727 105.625H312.453L310.484 112H301.695L314.211 77.875H321.945L334.555 112H325.719L323.727 105.625ZM314.422 99.2734H321.758L318.078 87.4375L314.422 99.2734ZM337.062 112V77.875H348.055C351.07 77.875 353.781 78.5625 356.188 79.9375C358.594 81.2969 360.469 83.2266 361.812 85.7266C363.172 88.2109 363.859 91 363.875 94.0938V95.6641C363.875 98.7891 363.211 101.594 361.883 104.078C360.57 106.547 358.711 108.484 356.305 109.891C353.914 111.281 351.242 111.984 348.289 112H337.062ZM345.289 84.2266V105.672H348.148C350.508 105.672 352.32 104.836 353.586 103.164C354.852 101.477 355.484 98.9766 355.484 95.6641V94.1875C355.484 90.8906 354.852 88.4062 353.586 86.7344C352.32 85.0625 350.477 84.2266 348.055 84.2266H345.289ZM376.859 112H368.656V77.875H376.859V112ZM411.078 112H402.898L390.805 90.7656V112H382.578V77.875H390.805L402.875 99.1094V77.875H411.078V112ZM444.805 112H436.625V97.75H424.508V112H416.281V77.875H424.508V91.4219H436.625V77.875H444.805V112ZM478.93 95.6406C478.93 98.9688 478.312 101.914 477.078 104.477C475.844 107.039 474.086 109.016 471.805 110.406C469.539 111.781 466.953 112.469 464.047 112.469C461.141 112.469 458.562 111.805 456.312 110.477C454.062 109.133 452.305 107.219 451.039 104.734C449.789 102.25 449.133 99.3984 449.07 96.1797V94.2578C449.07 90.9141 449.68 87.9688 450.898 85.4219C452.133 82.8594 453.891 80.8828 456.172 79.4922C458.469 78.1016 461.078 77.4062 464 77.4062C466.891 77.4062 469.469 78.0938 471.734 79.4688C474 80.8438 475.758 82.8047 477.008 85.3516C478.273 87.8828 478.914 90.7891 478.93 94.0703V95.6406ZM470.562 94.2109C470.562 90.8203 469.992 88.25 468.852 86.5C467.727 84.7344 466.109 83.8516 464 83.8516C459.875 83.8516 457.695 86.9453 457.461 93.1328L457.438 95.6406C457.438 98.9844 457.992 101.555 459.102 103.352C460.211 105.148 461.859 106.047 464.047 106.047C466.125 106.047 467.727 105.164 468.852 103.398C469.977 101.633 470.547 99.0938 470.562 95.7812V94.2109Z" fill="#1F243A"/>
<path d="M211.383 133.875L219 157.617L226.594 133.875H237.422V168H229.172V160.031L229.969 143.719L221.719 168H216.281L208.008 143.695L208.805 160.031V168H200.578V133.875H211.383ZM263.836 153.539H250.898V161.672H266.18V168H242.672V133.875H266.227V140.227H250.898V147.422H263.836V153.539ZM309.094 156.445C308.984 158.82 308.344 160.922 307.172 162.75C306 164.562 304.352 165.969 302.227 166.969C300.117 167.969 297.703 168.469 294.984 168.469C290.5 168.469 286.969 167.008 284.391 164.086C281.812 161.164 280.523 157.039 280.523 151.711V150.023C280.523 146.68 281.102 143.758 282.258 141.258C283.43 138.742 285.109 136.805 287.297 135.445C289.484 134.07 292.016 133.383 294.891 133.383C299.031 133.383 302.359 134.477 304.875 136.664C307.391 138.836 308.82 141.836 309.164 145.664H300.961C300.898 143.586 300.375 142.094 299.391 141.188C298.406 140.281 296.906 139.828 294.891 139.828C292.844 139.828 291.344 140.594 290.391 142.125C289.438 143.656 288.938 146.102 288.891 149.461V151.875C288.891 155.516 289.344 158.117 290.25 159.68C291.172 161.242 292.75 162.023 294.984 162.023C296.875 162.023 298.32 161.578 299.32 160.688C300.32 159.797 300.852 158.383 300.914 156.445H309.094ZM341.883 151.641C341.883 154.969 341.266 157.914 340.031 160.477C338.797 163.039 337.039 165.016 334.758 166.406C332.492 167.781 329.906 168.469 327 168.469C324.094 168.469 321.516 167.805 319.266 166.477C317.016 165.133 315.258 163.219 313.992 160.734C312.742 158.25 312.086 155.398 312.023 152.18V150.258C312.023 146.914 312.633 143.969 313.852 141.422C315.086 138.859 316.844 136.883 319.125 135.492C321.422 134.102 324.031 133.406 326.953 133.406C329.844 133.406 332.422 134.094 334.688 135.469C336.953 136.844 338.711 138.805 339.961 141.352C341.227 143.883 341.867 146.789 341.883 150.07V151.641ZM333.516 150.211C333.516 146.82 332.945 144.25 331.805 142.5C330.68 140.734 329.062 139.852 326.953 139.852C322.828 139.852 320.648 142.945 320.414 149.133L320.391 151.641C320.391 154.984 320.945 157.555 322.055 159.352C323.164 161.148 324.812 162.047 327 162.047C329.078 162.047 330.68 161.164 331.805 159.398C332.93 157.633 333.5 155.094 333.516 151.781V150.211ZM374.625 168H366.445L354.352 146.766V168H346.125V133.875H354.352L366.422 155.109V133.875H374.625V168ZM405.914 140.227H395.672V168H387.445V140.227H377.391V133.875H405.914V140.227ZM422.086 155.953H417.633V168H409.406V133.875H422.836C426.883 133.875 430.047 134.773 432.328 136.57C434.609 138.367 435.75 140.906 435.75 144.188C435.75 146.562 435.266 148.531 434.297 150.094C433.344 151.656 431.844 152.922 429.797 153.891L436.922 167.648V168H428.109L422.086 155.953ZM417.633 149.602H422.836C424.398 149.602 425.57 149.195 426.352 148.383C427.148 147.555 427.547 146.406 427.547 144.938C427.547 143.469 427.148 142.32 426.352 141.492C425.555 140.648 424.383 140.227 422.836 140.227H417.633V149.602ZM460.102 161.625H448.828L446.859 168H438.07L450.586 133.875H458.32L470.93 168H462.094L460.102 161.625ZM450.797 155.273H458.133L454.453 143.438L450.797 155.273ZM497.414 140.227H487.172V168H478.945V140.227H468.891V133.875H497.414V140.227ZM517.477 161.625H506.203L504.234 168H495.445L507.961 133.875H515.695L528.305 168H519.469L517.477 161.625ZM508.172 155.273H515.508L511.828 143.438L508.172 155.273Z" fill="#1F243A"/>
<line x1="170.998" y1="192" x2="538.998" y2="191.195" stroke="#1F243A" stroke-width="2"/>
<defs>
<clipPath id="clip0_85_2">
<rect width="198" height="192" fill="white"/>
</clipPath>
</defs>
</svg>
